<?xml version="1.0" encoding="UTF-8"?><svg id="Calque_1" xmlns="http://www.w3.org/2000/svg" viewBox="0 0 456.46 464.29"><defs><style>.cls-1{fill:#fff;stroke-width:0px;}</style></defs><path class="cls-1" d="m228.13,464.29C102.1,464.24-.05,360.25,0,232.05.05,103.85,102.29-.05,228.33,0c126.04.05,228.19,104.05,228.13,232.25-.05,128.2-102.29,232.1-228.33,232.04Zm-152.06-99.14c15.11-53.08,47.61-89.4,97.27-110.06-58.58-46.89-45.9-116.27-14.32-149.06,35.37-36.74,93.04-39.98,131.51-6.35,19.83,17.33,31.34,39.47,33.31,65.88,2.76,37.07-12.17,66.52-41.18,89.21,50.56,21.11,82.68,57.74,97.68,110.15,60.42-66.4,73.11-189.1-6.17-273.67C296.14,8.03,168.47,5.57,88.09,85.19,5.33,167.16,11.78,292.71,76.07,365.15Zm147.45,71.9c49.08-.01,93.02-15.53,127.87-42.87,4.77-3.74,5.89-7.34,4.94-12.95-10.49-62.06-66.07-109.23-128.53-108.91-62.13.32-117.31,47.51-127.67,108.99-.95,5.66.21,9.22,4.98,12.92,36.43,28.19,77.52,42.15,118.4,42.83Zm4.72-333.65c-37.97,0-69.26,31.68-69.38,70.24-.12,38.51,30.98,70.48,68.91,70.83,38.08.35,69.93-31.95,69.83-70.8-.11-38.56-31.39-70.26-69.36-70.26Z"/></svg>